<svg xmlns="http://www.w3.org/2000/svg" xmlns:xlink="http://www.w3.org/1999/xlink" width="501.326" height="333.866" viewBox="0 0 501.326 333.866">
  <defs>
    <filter id="path0" x="0" y="0" width="501.326" height="333.866" filterUnits="userSpaceOnUse">
      <feOffset input="SourceAlpha"/>
      <feGaussianBlur stdDeviation="8.5" result="blur"/>
      <feFlood flood-color="#fff"/>
      <feComposite operator="in" in2="blur"/>
      <feComposite in="SourceGraphic"/>
    </filter>
  </defs>
  <g id="svgg" transform="translate(-1119.101 -80.577)">
    <g transform="matrix(1, 0, 0, 1, 1119.1, 80.58)" filter="url(#path0)">
      <path id="path0-2" data-name="path0" d="M550.2,56.11v3.768H534.524l-.21,3.207c-.245,3.782-.8,4.045-10.013,4.771L518.6,68.3l.181,3.835.179,3.833-4.587.2-4.587.2v8.157H500.2v8.9h-8.22v10.275h-6.961l.226,4.8.228,4.8-2.569,0-2.569,0v-8.742l-4.966-.416c-2.73-.23-6.912-.475-9.291-.545l-4.324-.126-15.708,15.7c-12.449,12.44-15.708,16.068-15.708,17.481v1.783l8.327.449c4.578.245,10.312.447,12.74.447h4.413l6.023-6.335c6.5-6.842,7.275-7.094,6.529-2.127-.416,2.779-1.134,3.915-5.009,7.93l-4.525,4.685,5.674,5.7,5.672,5.7-1.864,1.468c-1.92,1.508-4.063,1.911-4.7.882-.2-.321-5.183,4.271-11.074,10.2l-10.711,10.787-.1,4.18-.1,4.18,2.76,0c2.711,0,3.084-.333,20.463-18.184l17.7-18.184-1.457-1.55c-1.25-1.331-1.457-2.379-1.457-7.35v-5.8l3.938-3.884,3.938-3.885,6.261-.121,6.259-.119,10.371-10.387,10.371-10.389-1.734-1.629c-1.611-1.513-1.736-2.078-1.736-7.867V91l3.959-3.917,3.957-3.917h13.622l4.238,4.2,4.24,4.2-.363,6.586-.361,6.587-3.859,3.964L538.9,112.67l-7.373-.107-7.371-.107-4.815,4.7c-2.649,2.586-6.845,6.952-9.328,9.7l-4.511,5,1.461,1.553c1.276,1.361,1.459,2.363,1.459,8.037v6.484l-3.964,3.924-3.964,3.922-6.019.186c-3.31.1-6.191-.091-6.4-.428s-13.592,12.6-29.742,28.743l-29.36,29.357v2.923c0,3.873,1.857,3.6,10.522-1.543,11.2-6.647,13.652-8.705,28.818-24.177l14.968-15.267-1.937-2.022-1.936-2.022,1.613-1.717c2.134-2.272,1.752-2.437,7.936,3.4,6.729,6.351,5.264,6.661,15.174-3.224,4.62-4.608,8.4-8.058,8.4-7.666,0,3.947-3.109,9.179-8.921,15.019l-6.137,6.163-.005,12.158c0,9.314.2,12.158.856,12.158.475,0,8.025-7.169,16.781-15.929l15.919-15.931v-26.29l-3.766-.205-3.764-.205,3.77-2.911c2.122-1.638,4.517-2.911,5.478-2.911,1.657,0,1.708-.14,1.708-4.794v-4.8h7.534V123.574H550.2V111.93h6.849V93.438h7.878V52.344H550.2V56.11M302.265,82.479V85.9h-5.307l-5.309,0,.233,4.11.231,4.112h-10.4v9.686l-4.275-.175-4.273-.174.228,2.646a73.563,73.563,0,0,1-.251,8.686l-.479,6.042H263.91v11.644H252.951v12.137l-3.6.433c-1.978.237-7.217.433-11.644.437l-8.046.007V158.5H187.886v16.438h-72.6v28.766h12.394l-.107-9.417-.107-9.417,35.69-.177,35.69-.179V168.092l20.032,0,20.034,0V155.422L249.183,155c5.651-.233,10.967-.465,11.816-.514,1.489-.084,1.541-.317,1.541-6.936V140.7H273.5V130.488l4.28-.2,4.28-.2.191-9.075.191-9.075h9.551v-9.682l4.622.168,4.624.17.2-4.574.2-4.575h39.663l0,4.624,0,4.624h9.249l.2,4.622.2,4.624h9.324l.444,5.241c.244,2.881.444,7.224.444,9.649v4.41l4.11-.231,4.112-.233,0,5.309,0,5.307h11.05l-.217,6.85-.216,6.85,12.156,0h12.158v13.012H437.57l4.759-4.794,4.757-4.794H413.219V145.491h-9.5a110.057,110.057,0,0,1-11.642-.428l-2.141-.43v-11.47l-3.938-.011c-7.008-.016-7.02-.028-7.02-6.235v-5.4h-8.9V103.712h-8.9V94.123h-8.9V85.9H341.305V79.055h-39.04v3.424m224.779,10.3c-4.538,4.227-1.064,11.616,5.458,11.616,5.029,0,6.056-1.122,6.056-6.626a6.73,6.73,0,0,0-11.514-4.99m-37.592,43.978c-5.795,6.374,2.925,15.847,9.177,9.973,2.26-2.125,2.255-7.9-.012-10.024-2.242-2.108-7.227-2.079-9.165.051M235.3,182.463l-3.577,4.781v39.067h10.313l-.065-18.323-.065-18.321,6.551-.2,6.552-.2v37.036h10.273V185.77l-3.253-4-3.254-4-9.949-.04-9.949-.039-3.579,4.781m146.246-.4-3.254,4.322v39.922h10.275V189.325h12.328v36.985h10.273V186.117l-4.392-4.217-4.392-4.219-8.793.032-8.791.032-3.253,4.322m-79.964,20.272v23.972h11.644V189.325h17.123v36.985h11.642V178.367h-40.41v23.972m174.27-1.268c-9.949,10-23.677,22.624-29.583,27.205-2.5,1.934-2.911,2.621-2.911,4.794v2.537l3.938-.4c4.347-.437,5.053-.826,18.663-10.287,8.455-5.877,21.095-17.711,23.2-21.724.789-1.5.8-2.56.054-6.5-1.413-7.494-1.62-7.427-13.364,4.375m43.164-.821c-2.974,1.2-3.051,1.738-2.591,18.063l.437,15.53h12.11V199.6l-4.282.044a23.048,23.048,0,0,0-5.674.608m-376.333,8.937v4.11h8.22v-8.22h-8.22v4.11m15.068,0v4.11h8.22v-8.22h-8.22v4.11m15.068,0v4.11h8.218v-8.22h-8.218v4.11m15.068,0v4.11H196.1v-8.22h-8.218v4.11m-72.6,10.617v13.355h12.33V206.447h-12.33V219.8m27.4,16.094v4.11h8.22V231.79h-8.22V235.9m15.068.344v4.452H196.1v-8.9H157.749v4.452M478.97,235.9v4.11h8.22V231.79h-8.22V235.9m15.068.033v4.077h8.218v-7.927l-4.108-.112-4.11-.114v4.077M215.28,237.1l0,4.624h9.249l.179,29.621.179,29.623H219.39v20.546H127.614V299.594h-12.33V335.21H320.072V268.774H323.5V335.21H528.625V299.594h-12.67v21.917H423.494V300.965H418l.179-29.6.179-29.6,4.35-.026,4.35-.026.1-4.624.1-4.624H215.282l0,4.624m-100,12.5v13.7h12.33V235.9h-12.33v13.7m401.357,17.465v30.479h11.642V236.584H516.641v30.479m-145.887,4.452v29.451h-4.108v26.711H350.892v-51l-7.694-7.717-7.694-7.717H308.179l-7.748,7.706-7.746,7.7,0,25.513-.005,25.513H276.923V300.965h-4.8v-58.9h98.627v29.451M259.8,249.6v6.849H237.2v-13.7h22.6V249.6m145.885,0v6.849H383.768v-13.7h21.917V249.6m-262.547,5.935a11.652,11.652,0,0,0-.458,4.11v3.652h8.22v-8.218h-3.654a11.708,11.708,0,0,0-4.108.456m14.611,3.654v4.108h23.286v-8.218H157.749v4.11m30.137,0v4.108H196.1v-8.218h-8.218v4.11m260.264,0v4.108h8.29l-.147-4.108-.149-4.11H448.15v4.11m15.068,0v4.108h8.218v-8.218h-8.218v4.11m15.068,0v4.108H486.5v-8.218h-8.218v4.11m15.752,0v4.108h8.218v-8.218h-8.218v4.11M114.6,281.1v15.752h13.013V265.349H114.6V281.1m145.2,2.4v17.465h-4.11v20.546H241.307V301.649H237.2V266.035h22.6V283.5m145.885.342v17.807h-3.424v19.862H387.192V301.649h-3.424V266.035h21.917v17.807M245.9,271.372l-2.537,2.6V294.8h10.958V273.846l-2.6-2.535c-3.16-3.086-2.749-3.089-5.825.061m146.258.205-2.911,2.725v20.5h10.959V273.846l-2.569-2.5-2.567-2.5-2.912,2.725M143.366,282.815v3.768h22.6v-7.534h-22.6v3.766m29.451,0v3.768h8.218v-7.534h-8.218v3.766m15.068.342v4.11H196.1v-8.218h-8.218v4.108m260.264,0v4.11h8.22v-8.218h-8.22v4.108m15.068-.342v3.768h8.218v-7.534h-8.218v3.766m15.358.342.037,4.11h24.33v-8.218h-24.4l.037,4.108M142.681,305.4v3.75l26.712.188,26.711.186v-7.876H142.681V305.4m305.469.016v3.766h54.107v-7.534H448.15v3.768" transform="translate(-89.1 -26.84)" fill="#fff" fill-rule="evenodd"/>
    </g>
  </g>
</svg>
